<svg width="720" height="570" viewBox="0 0 720 570" fill="none" xmlns="http://www.w3.org/2000/svg">
<g filter="url(#filter0_f_2365_26)">
<path d="M387.597 163.709H471.645C472.672 163.669 473.614 163.672 474.452 163.709H471.645C461.808 164.092 444.118 168.391 434.274 183.798C423.402 200.814 323.391 373.658 274.745 457.952C270.609 465.436 270.018 480.877 300.742 482.768H205.615C215.857 482.374 242.366 476.859 254.656 457.952L413.004 187.343C417.14 179.662 415.485 167.491 387.597 163.709Z" fill="white"/>
<path d="M387.597 163.709H474.452C465.589 163.315 445.146 166.782 434.274 183.798C423.402 200.814 323.391 373.658 274.745 457.952C270.609 465.436 270.018 480.877 300.742 482.768H205.615C215.857 482.374 242.366 476.859 254.656 457.952L413.004 187.343C417.14 179.662 415.485 167.491 387.597 163.709Z" stroke="white" stroke-width="2.3634"/>
</g>
<g filter="url(#filter1_f_2365_26)">
<path d="M16.5437 18.9515H142.986C144.439 18.8903 145.831 18.8946 147.121 18.9515H142.986C129.363 19.5254 110.382 25.8561 119.351 48.494L215.66 262.381C274.745 164.891 363.372 -0.428782 516.993 33.1315C472.089 28.7831 330.285 46.1302 196.753 334.465L63.8116 48.494C59.0849 38.6465 43.0138 18.9515 16.5437 18.9515Z" fill="white"/>
<path d="M142.968 17.7695C144.443 17.7083 145.858 17.7125 147.174 17.7705L147.122 20.1328H143.016C136.302 20.4183 128.481 22.1243 123.458 26.3525C120.975 28.4427 119.178 31.1449 118.505 34.6328C117.829 38.131 118.264 42.5266 120.437 48.0254L215.812 259.843C245.127 211.356 281.808 146.578 330.035 97.7812C378.939 48.2989 439.892 15.0781 517.245 31.9766L516.88 34.3076C494.697 32.1596 448.299 35.3421 390.779 75.0146C333.246 114.696 264.531 190.924 197.825 334.961L196.755 337.272L195.681 334.963L62.7458 49.0049C58.1293 39.3877 42.389 20.1328 16.5437 20.1328V17.7695H142.968Z" stroke="white" stroke-width="2.3634"/>
</g>
<g filter="url(#filter2_f_2365_26)">
<path d="M448.454 382.28C425.293 346.829 337.571 229.25 296.606 174.892L268.245 216.251C272.027 219.56 389.96 379.522 448.454 459.09C529.282 568.279 651.509 558.944 702.519 540.627C566.624 573.124 477.406 426.593 448.454 382.28Z" fill="white"/>
<path d="M448.454 382.28C425.293 346.829 337.571 229.25 296.606 174.892L268.245 216.251C272.027 219.56 389.96 379.522 448.454 459.09C529.282 568.279 651.509 558.944 702.519 540.627C566.624 573.124 477.406 426.593 448.454 382.28Z" stroke="white" stroke-width="2.3634"/>
</g>
<path d="M387.597 163.709H471.645C472.672 163.669 473.614 163.672 474.452 163.709H471.645C461.808 164.092 444.118 168.391 434.274 183.798C423.402 200.814 323.391 373.658 274.745 457.952C270.609 465.436 270.018 480.877 300.742 482.768H205.615C215.857 482.374 242.366 476.859 254.656 457.952L413.004 187.343C417.14 179.662 415.485 167.491 387.597 163.709Z" fill="black"/>
<path d="M387.597 163.709H471.645C472.672 163.669 473.614 163.672 474.452 163.709H471.645C461.808 164.092 444.118 168.391 434.274 183.798C423.402 200.814 323.391 373.658 274.745 457.952C270.609 465.436 270.018 480.877 300.742 482.768H205.615C215.857 482.374 242.366 476.859 254.656 457.952L413.004 187.343C417.14 179.662 415.485 167.491 387.597 163.709Z" fill="black"/>
<path d="M387.597 163.709H474.452C465.589 163.315 445.146 166.782 434.274 183.798C423.402 200.814 323.391 373.658 274.745 457.952C270.609 465.436 270.018 480.877 300.742 482.768H205.615C215.857 482.374 242.366 476.859 254.656 457.952L413.004 187.343C417.14 179.662 415.485 167.491 387.597 163.709Z" stroke="white" stroke-width="2.3634"/>
<path d="M142.968 17.7695C144.443 17.7083 145.858 17.7125 147.174 17.7705L147.122 20.1328H143.016C136.302 20.4183 128.481 22.1243 123.458 26.3525C120.975 28.4427 119.178 31.1449 118.505 34.6328C117.829 38.131 118.264 42.5266 120.437 48.0254L215.812 259.843C245.127 211.356 281.808 146.578 330.035 97.7812C378.939 48.2989 439.892 15.0781 517.245 31.9766L516.88 34.3076C494.697 32.1596 448.299 35.3421 390.779 75.0146C333.246 114.696 264.531 190.924 197.825 334.961L196.755 337.272L195.681 334.963L62.7458 49.0049C58.1293 39.3877 42.389 20.1328 16.5437 20.1328V17.7695H142.968Z" fill="black"/>
<path d="M142.968 17.7695C144.443 17.7083 145.858 17.7125 147.174 17.7705L147.122 20.1328H143.016C136.302 20.4183 128.481 22.1243 123.458 26.3525C120.975 28.4427 119.178 31.1449 118.505 34.6328C117.829 38.131 118.264 42.5266 120.437 48.0254L215.812 259.843C245.127 211.356 281.808 146.578 330.035 97.7812C378.939 48.2989 439.892 15.0781 517.245 31.9766L516.88 34.3076C494.697 32.1596 448.299 35.3421 390.779 75.0146C333.246 114.696 264.531 190.924 197.825 334.961L196.755 337.272L195.681 334.963L62.7458 49.0049C58.1293 39.3877 42.389 20.1328 16.5437 20.1328V17.7695H142.968Z" fill="black"/>
<path d="M142.968 17.7695C144.443 17.7083 145.858 17.7125 147.174 17.7705L147.122 20.1328H143.016C136.302 20.4183 128.481 22.1243 123.458 26.3525C120.975 28.4427 119.178 31.1449 118.505 34.6328C117.829 38.131 118.264 42.5266 120.437 48.0254L215.812 259.843C245.127 211.356 281.808 146.578 330.035 97.7812C378.939 48.2989 439.892 15.0781 517.245 31.9766L516.88 34.3076C494.697 32.1596 448.299 35.3421 390.779 75.0146C333.246 114.696 264.531 190.924 197.825 334.961L196.755 337.272L195.681 334.963L62.7458 49.0049C58.1293 39.3877 42.389 20.1328 16.5437 20.1328V17.7695H142.968Z" stroke="white" stroke-width="2.3634"/>
<path d="M448.454 382.28C425.293 346.829 337.571 229.25 296.606 174.892L268.245 216.251C272.027 219.56 389.96 379.522 448.454 459.09C529.282 568.279 651.509 558.944 702.519 540.627C566.624 573.124 477.406 426.593 448.454 382.28Z" fill="black"/>
<path d="M448.454 382.28C425.293 346.829 337.571 229.25 296.606 174.892L268.245 216.251C272.027 219.56 389.96 379.522 448.454 459.09C529.282 568.279 651.509 558.944 702.519 540.627C566.624 573.124 477.406 426.593 448.454 382.28Z" fill="black"/>
<path d="M448.454 382.28C425.293 346.829 337.571 229.25 296.606 174.892L268.245 216.251C272.027 219.56 389.96 379.522 448.454 459.09C529.282 568.279 651.509 558.944 702.519 540.627C566.624 573.124 477.406 426.593 448.454 382.28Z" stroke="white" stroke-width="2.3634"/>
<defs>
<filter id="filter0_f_2365_26" x="189.026" y="145.955" width="302.022" height="354.538" filterUnits="userSpaceOnUse" color-interpolation-filters="sRGB">
<feFlood flood-opacity="0" result="BackgroundImageFix"/>
<feBlend mode="normal" in="SourceGraphic" in2="BackgroundImageFix" result="shape"/>
<feGaussianBlur stdDeviation="8.27189" result="effect1_foregroundBlur_2365_26"/>
</filter>
<filter id="filter1_f_2365_26" x="-8.2016e-05" y="0.000162125" width="534.041" height="356.624" filterUnits="userSpaceOnUse" color-interpolation-filters="sRGB">
<feFlood flood-opacity="0" result="BackgroundImageFix"/>
<feBlend mode="normal" in="SourceGraphic" in2="BackgroundImageFix" result="shape"/>
<feGaussianBlur stdDeviation="8.27189" result="effect1_foregroundBlur_2365_26"/>
</filter>
<filter id="filter2_f_2365_26" x="250.133" y="156.324" width="469.33" height="413.291" filterUnits="userSpaceOnUse" color-interpolation-filters="sRGB">
<feFlood flood-opacity="0" result="BackgroundImageFix"/>
<feBlend mode="normal" in="SourceGraphic" in2="BackgroundImageFix" result="shape"/>
<feGaussianBlur stdDeviation="8.27189" result="effect1_foregroundBlur_2365_26"/>
</filter>
</defs>
</svg>
